<svg width="60" height="60" viewBox="0 0 60 60" fill="none" xmlns="http://www.w3.org/2000/svg">
<rect width="60" height="60" rx="8" fill="white"/>
<mask id="mask0_1_1371" style="mask-type:luminance" maskUnits="userSpaceOnUse" x="12" y="12" width="36" height="36">
<path d="M12 12H48V48H12V12Z" fill="white"/>
</mask>
<g mask="url(#mask0_1_1371)">
<path d="M44.1695 43.4855C41.2548 38.7153 35.9993 35.5313 30 35.5313M30 35.5313C24.0006 35.5313 18.7451 38.7153 15.8304 43.4855M30 35.5313C34.5822 35.5313 38.2969 31.8166 38.2969 27.2344C38.2969 22.6521 34.5822 18.9375 30 18.9375C25.4177 18.9375 21.7031 22.6521 21.7031 27.2344C21.7031 31.8166 25.4177 35.5313 30 35.5313ZM16.4662 15.8775L15.8775 16.4662C14.2951 18.0486 13.4062 20.1946 13.4062 22.4324V37.5676C13.4062 39.8054 14.2951 41.9514 15.8775 43.5338L16.4662 44.1225C18.0485 45.7048 20.1946 46.5938 22.4324 46.5938H37.5675C39.8053 46.5938 41.9514 45.7048 43.5338 44.1225L44.1225 43.5338C45.7048 41.9514 46.5938 39.8054 46.5938 37.5676V22.4324C46.5938 20.1946 45.7048 18.0486 44.1225 16.4662L43.5338 15.8775C41.9514 14.2952 39.8053 13.4062 37.5675 13.4062H22.4324C20.1946 13.4062 18.0485 14.2952 16.4662 15.8775Z" stroke="#309689" stroke-width="2" stroke-miterlimit="10" stroke-linecap="round" stroke-linejoin="round"/>
</g>
</svg>
